#  ==========================================================================
#
#  Wavefront OBJ format exported by Red-i Productions' "Riptide Pro"
#     (a commercial plugin for Cinema 4D PC & Mac, R9.6 or later)
#
#  Red-i Productions
#  http://skinprops.com
#
#  ==========================================================================
mtllib plane.mtl
v -5.0 0.0 5.0
v 5.0 0.0 5.0
v -5.0 0.0 -5.0
v 5.0 0.0 -5.0
# 4 vertices

vt 0 0
vt 0 1
vt 1 1
vt 1 0
# 4 texture coordinates

vn 0 1 0
# 1 vertex normals

f 4/3/1 3/2/1 1/1/1
f 2/4/1 4/3/1 1/1/1
# 2 facets